<svg id="Layer_1" data-name="Layer 1" xmlns="http://www.w3.org/2000/svg" viewBox="0 0 28.12 36.78"><defs><style>.cls-1{fill:#ffc4c4;}.cls-2,.cls-3,.cls-4,.cls-5{fill:none;}.cls-2,.cls-3,.cls-5{stroke:#000;}.cls-3,.cls-5{stroke-linecap:round;}.cls-3{stroke-width:0.75px;}.cls-4{stroke:#ff6868;}.cls-4,.cls-5{stroke-width:0.5px;}.cls-6{font-size:7px;fill:red;font-family:Gotham-Bold, Gotham;font-weight:700;}</style></defs><title>CMPT276_Project_Logo</title><path class="cls-1" d="M.5,29.23H27.62v5.49a1.56,1.56,0,0,1-1.57,1.56h-24A1.56,1.56,0,0,1,.5,34.72Z"/><rect class="cls-2" x="0.5" y="3.54" width="27.13" height="32.74" rx="1.28"/><line class="cls-3" x1="14.53" y1="0.39" x2="14.53" y2="6.69"/><line class="cls-3" x1="22.53" y1="0.39" x2="22.53" y2="6.69"/><line class="cls-3" x1="6.53" y1="0.39" x2="6.53" y2="6.69"/><path class="cls-4" d="M4.23,12.39l1,2.41a.14.14,0,0,0,.27,0l1.2-4.21a.14.14,0,0,1,.27,0L9.23,16a.14.14,0,0,0,.27,0l1-4a.14.14,0,0,1,.27,0l.62,1.89a.14.14,0,0,0,.27,0l1.6-4.74a.14.14,0,0,1,.28,0l1,6.54a.14.14,0,0,0,.28,0l.71-3.07a.15.15,0,0,1,.28,0l.46,1.4a.15.15,0,0,0,.28,0l.88-3.77a.14.14,0,0,1,.28,0l.94,4.08a.14.14,0,0,0,.28,0l.4-1.75a.14.14,0,0,1,.27,0l1.11,2.61"/><path class="cls-5" d="M5.12,23.2a38.21,38.21,0,0,1,1.15-3.93.15.15,0,0,1,.3,0l.84,4.81a.16.16,0,0,0,.3,0l1.48-3.47a.16.16,0,0,1,.29,0l.81,1.63a.17.17,0,0,0,.29,0l1.79-3.66a.16.16,0,0,1,.3,0l1,4.8a.16.16,0,0,0,.29.05l2.14-3.41a.15.15,0,0,1,.28,0L17.48,24a.16.16,0,0,0,.31,0l1.07-4.9a.16.16,0,0,1,.31,0l.76,3.05a.16.16,0,0,0,.3,0l.48-1"/><text class="cls-6" transform="translate(21.35 35.03)">+</text></svg>