<?xml version="1.0" encoding="utf-8"?>
<!-- Generator: Adobe Illustrator 27.0.0, SVG Export Plug-In . SVG Version: 6.00 Build 0)  -->
<svg version="1.1" id="Layer_1" xmlns="http://www.w3.org/2000/svg" xmlns:xlink="http://www.w3.org/1999/xlink" x="0px" y="0px"
	 viewBox="0 0 28.1 36.8" style="enable-background:new 0 0 28.1 36.8;" xml:space="preserve">
<style type="text/css">
	.st0{fill:#FFFFFF;}
	.st1{fill:#FFC4C4;}
	.st2{fill:none;stroke:#000000;}
	.st3{fill:none;stroke:#000000;stroke-width:0.75;stroke-linecap:round;}
	.st4{fill:none;stroke:#FF6868;stroke-width:0.5;}
	.st5{fill:none;stroke:#000000;stroke-width:0.5;stroke-linecap:round;}
	.st6{fill:#FF0000;}
	.st7{font-family:'Gotham-Book';}
	.st8{font-size:7px;}
</style>
<path class="st0" d="M1.8,3.5h24.6c0.7,0,1.3,0.6,1.3,1.3V35c0,0.7-0.6,1.3-1.3,1.3H1.8c-0.7,0-1.3-0.6-1.3-1.3V4.8
	C0.5,4.1,1.1,3.5,1.8,3.5z"/>
<path class="st1" d="M0.5,29.2h27.1v5.5c0,0.9-0.7,1.6-1.6,1.6c0,0,0,0,0,0h-24c-0.9,0-1.6-0.7-1.6-1.6V29.2z"/>
<path class="st2" d="M1.8,3.5h24.6c0.7,0,1.3,0.6,1.3,1.3V35c0,0.7-0.6,1.3-1.3,1.3H1.8c-0.7,0-1.3-0.6-1.3-1.3V4.8
	C0.5,4.1,1.1,3.5,1.8,3.5z"/>
<line class="st3" x1="14.5" y1="0.4" x2="14.5" y2="6.7"/>
<line class="st3" x1="22.5" y1="0.4" x2="22.5" y2="6.7"/>
<line class="st3" x1="6.5" y1="0.4" x2="6.5" y2="6.7"/>
<path class="st4" d="M4.2,12.4l1,2.4c0,0.1,0.1,0.1,0.2,0.1c0,0,0.1-0.1,0.1-0.1l1.2-4.2c0-0.1,0.1-0.1,0.2-0.1c0,0,0.1,0.1,0.1,0.1
	L9.2,16c0,0.1,0.1,0.1,0.2,0.1c0,0,0.1-0.1,0.1-0.1l1-4c0-0.1,0.1-0.1,0.2-0.1c0,0,0.1,0.1,0.1,0.1l0.6,1.9c0,0.1,0.1,0.1,0.2,0.1
	c0,0,0.1-0.1,0.1-0.1l1.6-4.7c0-0.1,0.1-0.1,0.1-0.1c0.1,0,0.1,0.1,0.1,0.1l1,6.5c0,0.1,0.1,0.1,0.1,0.1c0.1,0,0.1-0.1,0.1-0.1
	l0.7-3.1c0-0.1,0.1-0.1,0.2-0.1c0,0,0.1,0,0.1,0.1l0.5,1.4c0,0.1,0.1,0.1,0.2,0.1c0,0,0.1,0,0.1-0.1l0.9-3.8c0-0.1,0.1-0.1,0.1-0.1
	c0.1,0,0.1,0.1,0.1,0.1l0.9,4.1c0,0.1,0.1,0.1,0.1,0.1c0.1,0,0.1-0.1,0.1-0.1l0.4-1.8c0-0.1,0.1-0.1,0.2-0.1c0,0,0.1,0.1,0.1,0.1
	l1.1,2.6"/>
<path class="st5" d="M5.1,23.2c0.3-1.3,0.7-2.6,1.2-3.9c0-0.1,0.1-0.1,0.2-0.1s0.2,0.1,0.2,0.1l0.8,4.8c0,0.1,0.1,0.1,0.2,0.1
	c0,0,0.1-0.1,0.1-0.1l1.5-3.5c0-0.1,0.1-0.1,0.2-0.1c0,0,0.1,0,0.1,0.1l0.8,1.6c0,0.1,0.2,0.1,0.2,0.1c0,0,0,0,0.1-0.1l1.8-3.7
	c0-0.1,0.1-0.1,0.2-0.1c0,0,0.1,0.1,0.1,0.1l1,4.8c0,0.1,0.1,0.1,0.2,0.1c0,0,0.1,0,0.1-0.1l2.1-3.4c0-0.1,0.1-0.1,0.2-0.1
	c0,0,0.1,0,0.1,0.1l1.1,4c0,0.1,0.1,0.1,0.2,0.1c0.1,0,0.1-0.1,0.1-0.1l1.1-4.9c0-0.1,0.1-0.1,0.2-0.1c0.1,0,0.1,0.1,0.1,0.1l0.8,3
	c0,0.1,0.1,0.1,0.2,0.1c0,0,0.1-0.1,0.1-0.1l0.5-1"/>
<text transform="matrix(1 0 0 1 21.35 35.03)" class="st6 st7 st8">+</text>
</svg>
