<?xml version="1.0" encoding="utf-8"?>
<!-- Uploaded to: SVG Repo, www.svgrepo.com, Generator: SVG Repo Mixer Tools -->
<svg width="800px" height="800px" viewBox="-56.69 0 323.096 323.096" xmlns="http://www.w3.org/2000/svg"><defs><style>.a{fill:#ffffff;}.b{fill:#b5886a;}.c{fill:#211715;}.d{fill:#f4b467;}</style></defs><path class="a" d="M158.508,87.457a7.907,7.907,0,0,1,6.329-1.852,7.467,7.467,0,0,1,5.37,3.571,10.535,10.535,0,0,1,1.106,4.248,31.641,31.641,0,0,1-3.227,16.775,20.094,20.094,0,0,1-5.2,6.826,13.324,13.324,0,0,1-6.2,2.795l-1.062.165c-.509,1.9-1.08,3.509-1.361,4.36-1.92,5.211-13.22,24.053-27.068,29.087a71.636,71.636,0,0,0,1.1,10.922c.65,3.663.446,6.916,5.521,8.757.335.13,16.361,6.99,16.863,7.2,0,0-7.412,34.529-48,34.529s-44.03-35.508-44.03-35.508c.979-.334,15.555-6.091,15.891-6.212,5.085-1.837,4.884-5.106,5.525-8.763a71.739,71.739,0,0,0,1.132-12.078,46.849,46.849,0,0,1-14.737-12.122,53.825,53.825,0,0,1-10.256-20.02l-2.022-.312a13.324,13.324,0,0,1-6.2-2.795,20.094,20.094,0,0,1-5.2-6.826,31.641,31.641,0,0,1-3.227-16.775,10.55,10.55,0,0,1,1.1-4.248,7.471,7.471,0,0,1,5.371-3.571,7.907,7.907,0,0,1,6.329,1.852s-5.382-47.288,53.729-47.288S158.508,87.457,158.508,87.457Z"/><path class="b" d="M166.854,52.546c-.2-1.167-.405-2.247-.6-3.218-5.5-26.975-32.67-48.387-61.162-46.823C76.6.941,49.429,22.353,43.928,49.328c-1.491,7.275-1.312,19.722.043,25.53L46.7,85.543a7.85,7.85,0,0,1,5.648,1.914C63.608,79.646,82.708,66.077,92.6,57.572c-.813,5.048-3.7,13.635-.063,12.752,15.2-3.52,29.775-10.62,38.586-21.7,1.856,6.54,4.925,15.375,7.18,19.236,3.19,5.463,12.436,17.756,20.207,19.593a7.907,7.907,0,0,1,6.329-1.852,7.625,7.625,0,0,1,.986.215C169.783,76.651,168.449,61.843,166.854,52.546Z"/><path class="c" d="M46.255,74.451a48.634,48.634,0,0,1-.953-9.465,85.639,85.639,0,0,1,.409-11.571,49.435,49.435,0,0,1,6.775-19.56A60.151,60.151,0,0,1,85.94,7.354a54.23,54.23,0,0,1,10.7-2.249,113.247,113.247,0,0,1,11.343-.28,55.2,55.2,0,0,1,21.313,4.364,59.993,59.993,0,0,1,30.927,29.456A63.483,63.483,0,0,1,165.243,57.9c.906,7.324,1.407,15.09-.189,22.354a28.235,28.235,0,0,1-1.506,4.84,2.416,2.416,0,0,0,1.676,2.953,2.463,2.463,0,0,0,2.953-1.677c3.011-7.216,2.961-15.678,2.38-23.344-.544-7.177-1.537-14.584-3.961-21.391A63.73,63.73,0,0,0,136.252,7.2,62.3,62.3,0,0,0,113.541.305a109.589,109.589,0,0,0-11.7-.279A59.012,59.012,0,0,0,89.828,1.365,65.029,65.029,0,0,0,51.314,26.886a57.365,57.365,0,0,0-9.48,20.778A72.42,72.42,0,0,0,40.889,71a41.6,41.6,0,0,0,.737,4.724c.684,3.011,5.313,1.737,4.629-1.276Z"/><path class="c" d="M129.032,50.06c1.1,3.77,2.327,7.51,3.719,11.184a50.23,50.23,0,0,0,3.983,8.671,63.8,63.8,0,0,0,12.093,14.557c2.628,2.285,5.612,4.441,9.043,5.3,3,.751,4.275-3.877,1.276-4.628-5.278-1.322-9.823-6.514-13.266-10.7a49.4,49.4,0,0,1-8.15-13.566c-1.543-3.965-2.876-8.015-4.07-12.1-.865-2.959-5.5-1.7-4.628,1.276Z"/><path class="c" d="M129.576,46.738a54.694,54.694,0,0,1-18.76,14.641A79.742,79.742,0,0,1,99.269,66q-3.053.966-6.166,1.725c-.264.064-.542.116-.8.193-.388.114-.459-.08-.13.067a3.318,3.318,0,0,1,.639.286c.048.036.524.5.308.3-.157-.149.076.181.092.206a1.2,1.2,0,0,1-.082-.349c0,.564.015.036.018-.077.1-3.316,1.2-6.7,1.768-10.14A2.422,2.422,0,0,0,90.9,55.875c-9.929,8.518-20.711,16.09-31.382,23.638q-4.179,2.955-8.383,5.872a2.462,2.462,0,0,0-.861,3.283,2.421,2.421,0,0,0,3.284.861C64.7,81.8,75.77,73.932,86.478,65.607c2.648-2.059,5.271-4.154,7.817-6.338l-4.011-2.335c-.6,3.6-1.821,7.169-1.938,10.835-.052,1.636.291,3.528,1.792,4.464,1.69,1.054,3.685.27,5.444-.184a80.987,80.987,0,0,0,26.029-11.458A52.939,52.939,0,0,0,132.97,50.132a2.475,2.475,0,0,0,0-3.394,2.417,2.417,0,0,0-3.394,0Z"/><path class="b" d="M80.262,151.786c.178.095.356.189.534.28l-1.522,4c-4.2,12.23-36.437,10.9-34.46,5.855,4.448-2.522,5.462-8.669,4.258-13.637s-3.447-9.886-4.486-14.892c-1.663-8.079-1.013-13.817.986-18.767a16.449,16.449,0,0,0,2.4,2.4,13.324,13.324,0,0,0,6.2,2.795l2.022.312a53.825,53.825,0,0,0,10.256,20.02A47.418,47.418,0,0,0,80.262,151.786Z"/><path class="c" d="M43.07,114.464c-3.356,8.937-1.517,18.488,1.464,27.245,1.35,3.965,3.17,8.244,2.466,12.522a8.489,8.489,0,0,1-1.977,4.488c-.67.709-1.8,1.158-2.282,1.989a3.434,3.434,0,0,0-.414,1.675c.038,4.271,6.322,5.01,9.409,5.356a46.874,46.874,0,0,0,16.239-1.106c5.562-1.374,11.562-4.17,13.613-9.931a2.4,2.4,0,1,0-4.628-1.276c-.227.636.133-.134-.192.456-.12.217-.233.438-.364.649-.08.131-.632.88-.274.433-.2.249-.41.487-.631.717s-.462.458-.707.672c-.124.109-.679.544-.292.254a18.138,18.138,0,0,1-5.286,2.674,35.407,35.407,0,0,1-4.415,1.141,43.99,43.99,0,0,1-8.738.76c-1.377-.009-2.755-.076-4.124-.221-.144-.015-.952-.117-.664-.077s-.46-.073-.614-.1c-.566-.1-1.129-.211-1.685-.353-.523-.134-1.029-.3-1.537-.486-.156-.055-.365-.2.219.093-.106-.054-.222-.094-.325-.155-.152-.092-.313-.2-.471-.275-.478-.232.423.395.01-.007s.291.465.065.075c-.151-.261.17.415.158.375-.108-.383.033.315.035.366-.016-.4-.2.7,0,.139l-1.1,1.434c5.575-3.314,6.744-10.465,5.361-16.347-.92-3.914-2.475-7.643-3.615-11.492A39.928,39.928,0,0,1,46.04,125.2,25.937,25.937,0,0,1,47.7,115.74a2.419,2.419,0,0,0-1.676-2.952,2.452,2.452,0,0,0-2.952,1.676Z"/><path class="c" d="M160.205,89.154a5.444,5.444,0,0,1,7.547.631c1.159,1.465,1.212,3.622,1.263,5.4a28.234,28.234,0,0,1-.39,5.741c-1.23,6.9-4.892,15.257-12.579,16.577a2.42,2.42,0,0,0-1.676,2.952,2.455,2.455,0,0,0,2.952,1.677c7.988-1.373,12.749-8.86,14.987-16.055a33.513,33.513,0,0,0,1.468-11.775c-.23-3.986-1.381-7.772-5.061-9.849a10.413,10.413,0,0,0-11.9,1.3,2.42,2.42,0,0,0,0,3.394,2.45,2.45,0,0,0,3.394,0Z"/><path class="c" d="M154.2,113.931a26.961,26.961,0,0,1-1.318,6.9c-.232.767-.484,1.526-.739,2.285-.078.235-.159.468-.239.7-.231.676.07-.121-.058.16a55.816,55.816,0,0,1-3.5,6.408,63.364,63.364,0,0,1-14.006,16.2,26.818,26.818,0,0,1-10.492,5.33c-3.009.692-1.735,5.321,1.276,4.629,7.87-1.81,14.466-7.457,19.671-13.384a68.444,68.444,0,0,0,11.007-16.341,34.655,34.655,0,0,0,3.2-12.883c.1-3.089-4.7-3.086-4.8,0Z"/><path class="c" d="M54.044,85.76a10.375,10.375,0,0,0-10.313-2.028c-4.044,1.521-6.024,4.879-6.519,9.037a32.45,32.45,0,0,0,5.7,22.312,17,17,0,0,0,10.62,7.054,2.47,2.47,0,0,0,2.952-1.677,2.419,2.419,0,0,0-1.676-2.952c-7.687-1.32-11.349-9.675-12.579-16.577a28.163,28.163,0,0,1-.39-5.741c.05-1.735.1-3.8,1.162-5.255a5.416,5.416,0,0,1,7.648-.779,2.463,2.463,0,0,0,3.394,0,2.421,2.421,0,0,0,0-3.394Z"/><path class="c" d="M52.175,113.177c2.882,16.625,11.9,32.915,27.317,40.923a37.015,37.015,0,0,0,13.35,3.988,2.416,2.416,0,0,0,2.4-2.4,2.454,2.454,0,0,0-2.4-2.4c-15.863-1.645-28.22-15.882-33.195-30.174A70.771,70.771,0,0,1,56.8,111.9a2.422,2.422,0,0,0-2.953-1.677,2.456,2.456,0,0,0-1.676,2.953Z"/><path class="c" d="M78.78,152.984a94.468,94.468,0,0,1-1.326,12.567c-.42,2.719-.9,4.2-3.6,5.264q-5.483,2.153-10.964,4.306c-1.624.636-3.24,1.317-4.887,1.891a2.46,2.46,0,0,0-1.677,2.953,2.423,2.423,0,0,0,2.953,1.676c3.969-1.383,7.857-3.055,11.768-4.594q2.058-.808,4.116-1.615c3.507-1.368,5.952-3.6,6.715-7.389a85.4,85.4,0,0,0,1.7-15.059c.062-3.09-4.738-3.09-4.8,0Z"/><path class="c" d="M124.792,153.441a92.414,92.414,0,0,0,1.606,14.2,9.686,9.686,0,0,0,6.788,7.784c.412.139-.676-.288-.091-.038l.972.414q1.471.626,2.941,1.255,3.753,1.6,7.506,3.207c1.839.786,3.672,1.59,5.521,2.352a2.414,2.414,0,0,0,2.952-1.676,2.461,2.461,0,0,0-1.676-2.953c-.308-.127.764.326.162.068l-.921-.392q-1.335-.569-2.67-1.14l-7.149-3.055q-2.607-1.113-5.216-2.225a15.61,15.61,0,0,1-2.529-1.182,3.8,3.8,0,0,1-1.74-2.646c-.463-1.815-.674-3.745-.953-5.595a67.219,67.219,0,0,1-.7-8.383c-.074-3.084-4.875-3.095-4.8,0Z"/><path class="d" d="M207.025,259.3c-.481-9.188-1.71-20.557-2.593-27.728-.834-6.764-1.531-13.766-4.239-20.021-4.759-10.993-15.642-18.029-26.567-22.942-6.359-2.86-12.986-5.259-19.317-8.167a3.444,3.444,0,0,0-3.348.225c-28.117,18.712-69.535,15.276-92.953-.97a3.429,3.429,0,0,0-3.415-.266,294.474,294.474,0,0,0-29.749,16.309c-4.919,3.065-9.854,6.379-13.28,11.055-5.278,7.2-6.436,16.8-7.331,25.686-.785,7.791-1.833,28-1.833,41.226,0,18.157,17.712,25.02,26.212,26.356,13.385,2.1,22.668-8.2,30.143-17.764,2.169-2.776,4.175-5.647,6.055-8.595l.555,0c3.14-.286,7.681,2.477,11.026,3.568a73.254,73.254,0,0,0,16.22,3.008c-.005,10.75-.043,24.785.444,34.122,10.209,3.012,55.571,6.906,67.49,6.31,11.433-.573,23.905,1.008,33.434-6.257,8.036-6.127,11.783-13.775,12.48-25.979.593-10.37,1.235-19.311.557-29.323"/><path class="a" d="M46.6,295.051c4.629-3.47,8.6-8.192,12.159-12.748,2.155-2.758,4.149-5.61,6.018-8.537.376-.036.592-.055.592-.055,3.14-.286,7.681,2.477,11.026,3.568a73.254,73.254,0,0,0,16.22,3.008c0,7.579-.023,16.791.136,24.838h-.62c-4.772,0-8.128-.159-12.889.054-4.521.2-8.773,1.5-13.225,2.142-8.667,1.259-17.762.188-26.358-.738-2.877-.31-10.75-1.667-13.9-7.138C34.046,301.752,40.832,299.373,46.6,295.051Z"/><path class="c" d="M209.425,259.3c-.616-11.553-1.864-23.123-3.463-34.58-.844-6.05-2.171-12.114-5.245-17.462a40.954,40.954,0,0,0-10.56-11.753c-9.7-7.532-21.359-11.284-32.468-16.162a13.94,13.94,0,0,0-4.509-1.611,6.989,6.989,0,0,0-4.362,1.471,69.045,69.045,0,0,1-6.771,3.819,73.928,73.928,0,0,1-14.007,5.15c-18.99,4.963-40.459,3.478-58.385-4.671-2.095-.952-4.147-2-6.139-3.154q-1.383-.8-2.727-1.67a10.263,10.263,0,0,0-3.616-1.863,7.274,7.274,0,0,0-4.643.949q-2.343,1.118-4.664,2.281-4.432,2.22-8.784,4.6c-5.731,3.126-11.381,6.424-16.888,9.932-5.038,3.209-9.907,6.827-13.284,11.839-5.872,8.716-6.667,20.082-7.438,30.266-.751,9.933-1.181,19.9-1.389,29.862Q.008,270.128,0,273.711c0,3.088,4.8,3.093,4.8,0,.007-10.027.425-20.062,1.012-30.071.537-9.163.885-18.767,3.758-27.545a27.908,27.908,0,0,1,8.947-13.064c4.616-3.828,10.026-6.816,15.187-9.833q8.249-4.823,16.8-9.111,2.006-1,4.027-1.971a3.728,3.728,0,0,1,1.614-.614,3.5,3.5,0,0,1,1.434.8c1.778,1.192,3.618,2.289,5.5,3.3,17.241,9.218,37.914,11.918,57.128,9.059a80.205,80.205,0,0,0,28.663-9.856c1.014-.593,2-1.227,2.992-1.856a1.765,1.765,0,0,1,1.062-.437,8.249,8.249,0,0,1,2.341.98c2.957,1.3,5.948,2.513,8.938,3.731a133.328,133.328,0,0,1,15.877,7.331,50.8,50.8,0,0,1,12.1,9.235,31.877,31.877,0,0,1,7.559,13.865c1.442,5.468,1.972,11.15,2.63,16.753.645,5.5,1.216,11,1.673,16.514.232,2.792.431,5.586.58,8.384.164,3.072,4.965,3.092,4.8,0Z"/><path class="c" d="M170.385,275.046c-3.271.347-6.595.351-9.88.433-5.683.141-11.367.22-17.052.29-12.614.156-25.23.235-37.844.367-4.332.045-8.668.062-13,.21a2.441,2.441,0,0,0-2.4,2.4c0,11.882-.164,23.792.444,35.663a2.475,2.475,0,0,0,1.762,2.314,67.52,67.52,0,0,0,8.8,1.722c4.611.7,9.243,1.261,13.877,1.769q15.081,1.655,30.239,2.534c8.965.508,17.873.385,26.847.109,6.782-.21,13.727-.972,19.792-4.245a31.711,31.711,0,0,0,12.347-12.245c3-5.41,4.154-11.561,4.53-17.676.485-7.879,1-15.781.828-23.679q-.063-2.928-.258-5.852a2.458,2.458,0,0,0-2.4-2.4,2.42,2.42,0,0,0-2.4,2.4,189.427,189.427,0,0,1-.2,23.064c-.357,6.369-.494,12.808-2.864,18.824a26.963,26.963,0,0,1-9.118,11.589c-5.175,3.838-11.553,4.983-17.849,5.32-18.749,1-37.427-.255-56.08-2.179q-4.068-.42-8.13-.905c-2.488-.3-4.284-.53-6.607-.867a73.585,73.585,0,0,1-10.079-1.912l1.762,2.315c-.608-11.871-.445-23.781-.444-35.663l-2.4,2.4c9.578-.327,19.177-.271,28.759-.355,12.445-.109,24.891-.192,37.333-.47,3.881-.086,7.817-.065,11.682-.475a2.469,2.469,0,0,0,2.4-2.4,2.417,2.417,0,0,0-2.4-2.4Z"/><path class="c" d="M92.127,302.724c-4.9-.006-9.866-.314-14.746.195-5,.523-9.848,2-14.871,2.387a91.423,91.423,0,0,1-15.386-.352c-2.518-.231-5.031-.513-7.545-.78l-.323-.038c-.335-.038.455.067.095.013-.276-.041-.551-.083-.826-.13q-1.032-.179-2.05-.431c-3.3-.819-6.776-2.266-8.616-5.309-1.6-2.64-5.749-.23-4.145,2.423,4.037,6.674,12.114,7.88,19.186,8.629a127.243,127.243,0,0,0,16.074.947c5.406-.115,10.552-1.242,15.848-2.18,5.688-1.007,11.556-.581,17.3-.574,3.088,0,3.093-4.8,0-4.8Z"/><path class="c" d="M165.069,225.363c-.126,15.414.432,30.823,1.127,46.218.084,1.881.187,3.761.233,5.643.076,3.084,4.876,3.1,4.8,0-.3-12.224-1.07-24.429-1.28-36.659q-.132-7.6-.08-15.2c.026-3.089-4.774-3.092-4.8,0Z"/><path class="c" d="M92.608,277.887a57.985,57.985,0,0,1-13.39-2.282,44.905,44.905,0,0,1-6.11-2.239c-2.427-1.041-5.038-2.219-7.743-2.055-3.069.185-3.091,4.986,0,4.8,2.273-.138,4.547,1.062,6.587,1.95a43.735,43.735,0,0,0,6.612,2.335,63.4,63.4,0,0,0,14.044,2.291c3.09.073,3.089-4.727,0-4.8Z"/><path class="c" d="M56.345,287.545q.966.267,1.918.585.612.2,1.217.425.323.118.644.245.165.063.327.129c.084.034.585.243.152.06-.417-.176.009.006.1.044.11.048.219.1.327.146.234.107.467.217.7.332.411.2.815.424,1.208.664.185.113.367.23.545.354.085.059.167.125.254.182-.634-.421-.32-.251-.17-.126a5.641,5.641,0,0,1,.42.383c.073.074.141.152.211.229.311.335-.358-.491-.143-.186a2.585,2.585,0,0,0,1.434,1.1,2.4,2.4,0,0,0,2.711-3.526,12,12,0,0,0-5.29-3.8,40.63,40.63,0,0,0-5.282-1.877,2.4,2.4,0,0,0-1.276,4.629Z"/><path class="a" d="M62.042,207.381a61.006,61.006,0,0,0,4.193-6.959c2.894-5.984,3.9-12.929,5.028-19.579a110.212,110.212,0,0,1,5.025-19.486c1.991-5.377,12.489-12.389,18.762-12.128,3.352.139,7.922,3.8,10.282,6.334,1.659,1.779,7.274,10.3.788,9.152,2.384,1.721,6.432,8.785,1.6,11.478,3.49,5.569.563,9.7-4.271,10,1.889,1.3,1.89,4.9.754,6.905-1.591,2.8-3.741,2.686-6.444,3.152-7.511,1.3-4.416,4.747-6.526,10.683-1.681,4.728-8.45,5.907-11.451,10.682C77.121,221.857,59.194,211.651,62.042,207.381Z"/><path class="c" d="M57.454,220.917c.96-3.787,3.2-7.116,5.333-10.335a67.527,67.527,0,0,0,6.148-10.331c3.577-8.287,4.105-17.415,6.107-26.129q.791-3.447,1.8-6.839.47-1.564.992-3.112.26-.767.534-1.528c.021-.057.35-.932.2-.576-.093.225.182-.374.175-.36a17.912,17.912,0,0,1,5.816-5.975,23.628,23.628,0,0,1,8.461-3.935,6.066,6.066,0,0,1,3.459.193,16.131,16.131,0,0,1,4.185,2.534,24.6,24.6,0,0,1,3.367,3.2c.316.367-.185-.276.216.292.16.227.32.453.474.684.339.508.661,1.029.959,1.563.172.308.337.621.492.939s.229.5.215.469c.1.265.2.532.271.806.035.127.06.258.1.385.1.355.162.167.008,0,.033.035,0,.2.007.253.033.241.2-.444.022-.1-.21.418.515-.613.2-.338a2.619,2.619,0,0,1,.532-.312c-.085.052-.539.066-.23.07s-.709-.062-.535-.035a2.413,2.413,0,0,0-1.849,4.387c-.486-.367.339.364.465.5a3.7,3.7,0,0,1,.609.777,10.324,10.324,0,0,1,1.244,2.394,7.668,7.668,0,0,1,.342,1.341c-.028-.2-.029,1.089.015.817a1.675,1.675,0,0,1-1.073,1.5,2.435,2.435,0,0,0-.861,3.284,7.533,7.533,0,0,1,1.184,2.9,3.277,3.277,0,0,1-.2,1.653,2.546,2.546,0,0,1-1.138,1.224,4.992,4.992,0,0,1-2.045.614,2.424,2.424,0,0,0-1.211,4.473c-.245-.187.157.373.169.4a3.266,3.266,0,0,1,.163.869,4.7,4.7,0,0,1-.374,2.224c-.831,1.7-2.334,1.757-4.087,2.019-3.464.517-7.08,1.721-7.974,5.524a16.929,16.929,0,0,0-.307,2.141c-.035.338-.062.677-.094,1.016-.02.2-.039.4-.061.6a2.015,2.015,0,0,1-.046.381,7.788,7.788,0,0,1-1.64,4.259c-2.687,2.883-6.669,4.166-9.218,7.262-3.531,4.289-5.04,9.926-8.707,14.147-2.018,2.322,1.363,5.731,3.394,3.394,3.6-4.15,5.494-9.285,8.491-13.822,2.315-3.5,6.905-4.682,9.632-7.8a11.613,11.613,0,0,0,2.609-5.759c.164-.918.268-1.848.357-2.776.035-.371.067-.742.105-1.112.011-.106.067-.479-.009.021.029-.194.06-.388.1-.58.036-.166.358-1.025.092-.474a2.957,2.957,0,0,1,.164-.316c.334-.513-.293.421.056-.1a1.871,1.871,0,0,1,.274-.268c-.323.292-.086.064.011,0a3.138,3.138,0,0,1,1.049-.486c2.029-.651,4.223-.57,6.2-1.394,5.153-2.148,6.621-10.044,2.073-13.521l-1.212,4.472c2.959-.237,5.875-1.474,7.328-4.215,1.624-3.065.718-6.584-.985-9.4l-.861,3.284c6.1-3.633,3.017-12.136-1.6-15.624l-1.849,4.387c1.682.267,3.589.347,4.9-.958a4.5,4.5,0,0,0,1.064-4.118,16.547,16.547,0,0,0-3.337-6.741,24.9,24.9,0,0,0-8.22-6.914,12.5,12.5,0,0,0-10.479-.464,32.585,32.585,0,0,0-10.176,5.982,23.242,23.242,0,0,0-3.661,3.919,17.709,17.709,0,0,0-2.3,4.94,109.422,109.422,0,0,0-3.92,15.237c-.907,4.832-1.532,9.72-2.789,14.481a36.842,36.842,0,0,1-2.657,7.32,63.475,63.475,0,0,1-3.868,6.344c-2.825,4.241-5.948,8.57-7.22,13.584-.759,3,3.869,4.274,4.629,1.276Z"/><path class="c" d="M89.873,165.018c2.868.4,5.745.739,8.619,1.1,1.523.19,3.046.379,4.568.576l.9.117c.592.078-.158-.022-.035,0l.422.058c.38.052.76.106,1.138.169a2.459,2.459,0,0,0,2.952-1.676,2.429,2.429,0,0,0-1.676-2.953c-2.611-.437-5.257-.711-7.885-1.038q-2.367-.3-4.734-.589-1.014-.128-2.028-.257l-.774-.1c-.445-.058.006-.008.194.027-.126-.023-.255-.035-.382-.053a2.469,2.469,0,0,0-2.952,1.677c-.257,1.131.347,2.767,1.676,2.952Z"/><path class="c" d="M87.751,176.3c3.359.253,6.71.644,10.056,1.028q2.713.311,5.424.649l1.126.145.428.056c.263.033-.569-.08-.008,0,.484.069.967.135,1.449.216a2.473,2.473,0,0,0,2.953-1.677,2.419,2.419,0,0,0-1.677-2.952c-3.129-.524-6.3-.846-9.452-1.209-3.427-.394-6.859-.8-10.3-1.055a2.421,2.421,0,0,0-2.4,2.4,2.446,2.446,0,0,0,2.4,2.4Z"/><path class="c" d="M87.316,187.684c2.833-.056,5.685.157,8.512.322,1.572.091,3.143.191,4.713.31.577.044,1.154.09,1.729.144.226.021.451.046.677.068.609.062-.635-.1-.133-.017a2.472,2.472,0,0,0,2.952-1.677,2.418,2.418,0,0,0-1.676-2.952,75.335,75.335,0,0,0-8.07-.665c-2.89-.17-5.807-.39-8.7-.333a2.4,2.4,0,1,0,0,4.8Z"/><path class="d" d="M42.091,225.531c7.037-11.2,13.711-21.725,15.262-24.26a1.323,1.323,0,0,1,1.6-.552c7.3,2.787,29.623,17.055,30.546,18.226.465.591.991,1.279.774,1.988-.865,2.825-8.433,19.318-11.172,25.315Z"/><path class="c" d="M26.294,255.8c2.914-5.189,6.117-10.226,9.256-15.28Q42.03,230.083,48.6,219.7c3.263-5.178,6.541-10.346,9.785-15.535q.31-.495.618-.991c.078-.125.163-.248.234-.378a.993.993,0,0,0,.083-.133l.075-.123a1.128,1.128,0,0,1-1.071.493c.018.045,1.061.448.314.122.278.121.555.244.83.372.7.323,1.391.665,2.078,1.015,3.475,1.774,6.851,3.743,10.2,5.744q5.694,3.4,11.258,7.021c1.27.829,2.538,1.664,3.778,2.537.193.136.384.275.577.413.4.284.33.432.065.04.069.1.221.148.295.248a.719.719,0,0,0,.073.073c-.283-.279.188.337.227.6v-1.276a14.391,14.391,0,0,1-1.214,3.335c.162-.388-.22.515-.3.693q-.3.7-.607,1.405-.623,1.433-1.257,2.86c-1.809,4.083-3.657,8.15-5.51,12.213-4.776,10.468-9.514,21-15.6,30.79a113.106,113.106,0,0,1-10.37,14.151c-3.386,3.93-7.146,7.693-11.766,10.15a19.863,19.863,0,0,1-13.184,2.031A37.393,37.393,0,0,1,19.25,294.6,27.844,27.844,0,0,1,9.178,286.84,21.4,21.4,0,0,1,4.8,273.711c-.02-3.088-4.82-3.1-4.8,0a26.129,26.129,0,0,0,4.082,14.211,30.307,30.307,0,0,0,9.337,8.94c6.8,4.268,15.588,7.011,23.6,5.356,11.216-2.318,19.286-12.449,25.7-21.193,7.734-10.552,13.367-22.414,18.786-34.267,3.533-7.73,7.188-15.431,10.385-23.307.7-1.724,1.231-3.334.148-5.1a8.325,8.325,0,0,0-2.5-2.42c-2.577-1.851-5.274-3.546-7.956-5.239-3.689-2.328-7.415-4.6-11.2-6.778a90.218,90.218,0,0,0-9.764-5.095c-2.266-.959-4.2-.523-5.569,1.622-.483.757-.949,1.524-1.426,2.284q-2.355,3.756-4.725,7.5C40.431,223.649,31.822,237,23.733,250.645c-.537.905-1.069,1.812-1.584,2.73-1.515,2.7,2.63,5.119,4.145,2.423Z"/><path class="c" d="M96.334,129.946a20.955,20.955,0,0,0,10.089,2.33c3.594-.023,7.248-.721,10.13-2.966a2.413,2.413,0,0,0,0-3.394,2.46,2.46,0,0,0-3.394,0c.713-.556.1-.093-.079.024-.2.132-.416.253-.631.366-.154.081-.9.39-.293.16-.289.11-.576.222-.871.317a14.84,14.84,0,0,1-5.191.693,15.428,15.428,0,0,1-4.951-.667c-.319-.095-.631-.209-.945-.318-.1-.035-.2-.088-.3-.118.593.173.182.081.022.006-.391-.184-.776-.376-1.158-.578a2.453,2.453,0,0,0-3.284.861,2.427,2.427,0,0,0,.861,3.284Z"/><path class="c" d="M105.319,106.029a48.02,48.02,0,0,1,1.128,5.162l-.086-.638a3.152,3.152,0,0,1,.02.713l.085-.638a1.738,1.738,0,0,1-.078.32l.242-.573a1.328,1.328,0,0,1-.113.206l.375-.486a1.068,1.068,0,0,1-.169.167l.486-.376a3.261,3.261,0,0,1-.409.217l.574-.242a2.967,2.967,0,0,1-.69.2l.638-.086a2.737,2.737,0,0,1-.646,0l.638.086c-.244-.034-.484-.094-.728-.126a2.644,2.644,0,0,0-1.849.242,2.4,2.4,0,0,0-.861,3.283,2.3,2.3,0,0,0,1.434,1.1c.534.072,1.051.208,1.593.232a5.042,5.042,0,0,0,2.32-.548,3.294,3.294,0,0,0,1.842-2.177,5.558,5.558,0,0,0-.025-2.374c-.281-1.663-.665-3.312-1.093-4.943a2.4,2.4,0,0,0-4.628,1.276Z"/><path class="c" d="M77.785,91.475c-.862,2.8-.3,9.246,5.007,9.8,7.015-.042,7.388-7.834,5.027-11.5C85.885,86.774,80.2,85.526,77.785,91.475Z"/><path class="c" d="M133.959,91.476c.862,2.8.3,9.246-5.007,9.794-7.015-.042-7.388-7.834-5.027-11.5C125.858,86.773,131.543,85.526,133.959,91.476Z"/></svg>